<svg xmlns="http://www.w3.org/2000/svg" viewBox="0 0 480 360" preserveAspectRatio="xMidYMid slice"><defs>
<linearGradient id="sky" x1="0" y1="0" x2="0" y2="1"><stop offset="0" stop-color="#F3EEE2"/><stop offset="1" stop-color="#F7F3EA"/></linearGradient>
<linearGradient id="gold" x1="0" y1="1" x2="1" y2="0"><stop offset="0" stop-color="#B8700A"/><stop offset=".55" stop-color="#E8960F"/><stop offset="1" stop-color="#F7B85A"/></linearGradient>
<linearGradient id="glass" x1="0" y1="0" x2="1" y2="1"><stop offset="0" stop-color="#DCE8E2"/><stop offset="1" stop-color="#9FB9AC"/></linearGradient>
<linearGradient id="light" x1="0" y1="0" x2="0" y2="1"><stop offset="0" stop-color="#FFF4DC"/><stop offset="1" stop-color="#FBE3B4"/></linearGradient>
</defs><rect width="480" height="360" fill="url(#sky)"/><circle cx="404" cy="68" r="26" fill="#F7B85A" opacity=".85"/><g fill="#FFFFFF" opacity=".9"><ellipse cx="90" cy="60" rx="30.6" ry="9.9"/><ellipse cx="79.2" cy="52.8" rx="14.4" ry="10.8"/><ellipse cx="99.0" cy="50.1" rx="17.1" ry="13.5"/></g><rect x="60" y="136" width="360" height="180" fill="#EFE6D6"/><rect x="52" y="126" width="376" height="12" fill="#0B2B20"/><path d="M280 90h120v36H280z" fill="none"/><rect x="286" y="84" width="4" height="42" fill="#1F4436"/><rect x="308" y="84" width="4" height="42" fill="#1F4436"/><rect x="330" y="84" width="4" height="42" fill="#1F4436"/><rect x="352" y="84" width="4" height="42" fill="#1F4436"/><rect x="374" y="84" width="4" height="42" fill="#1F4436"/><rect x="396" y="84" width="4" height="42" fill="#1F4436"/><rect x="280" y="80" width="126" height="6" fill="#1F4436"/><path d="M293.7 100h12.6l-1.8 11.700000000000001h-9.0z" fill="#B8700A"/><path d="M300 100C286.5 95.5 288.3 80.2 298.2 76.6C296.4 86.5 300 92.8 300 100z" fill="#2F5A48"/><path d="M300 100C312.6 96.4 313.5 82.0 304.5 73.9C304.5 84.7 301.8 92.8 300 100z" fill="#1F4436"/><path d="M381.7 100h12.6l-1.8 11.700000000000001h-9.0z" fill="#B8700A"/><path d="M388 100C374.5 95.5 376.3 80.2 386.2 76.6C384.4 86.5 388 92.8 388 100z" fill="#2F5A48"/><path d="M388 100C400.6 96.4 401.5 82.0 392.5 73.9C392.5 84.7 389.8 92.8 388 100z" fill="#1F4436"/><rect x="84" y="160" width="70" height="60" fill="url(#glass)"/><rect x="84" y="220" width="70" height="4" fill="#1F4436"/><rect x="326" y="160" width="70" height="60" fill="url(#glass)"/><rect x="326" y="220" width="70" height="4" fill="#1F4436"/><rect x="186" y="170" width="108" height="146" fill="#E3D5BC"/><path d="M198 316V200a42 42 0 0 1 84 0v116z" fill="url(#light)"/><path d="M204 316l12-74h48l12 74z" fill="#EFE6D6" opacity=".9"/><path d="M206.3 296h15.400000000000002l-2.2 14.3h-11.0z" fill="#B8700A"/><path d="M214 296C197.5 290.5 199.7 271.8 211.8 267.4C209.6 279.5 214 287.2 214 296z" fill="#2F5A48"/><path d="M214 296C229.4 291.6 230.5 274.0 219.5 264.1C219.5 277.3 216.2 287.2 214 296z" fill="#1F4436"/><path d="M258.3 296h15.400000000000002l-2.2 14.3h-11.0z" fill="#B8700A"/><path d="M266 296C249.5 290.5 251.7 271.8 263.8 267.4C261.6 279.5 266 287.2 266 296z" fill="#2F5A48"/><path d="M266 296C281.4 291.6 282.5 274.0 271.5 264.1C271.5 277.3 268.2 287.2 266 296z" fill="#1F4436"/><rect x="96" y="240" width="46" height="76" rx="3" fill="#0B2B20"/><circle cx="134" cy="280" r="2.5" fill="#E8960F"/><rect x="0" y="316" width="480" height="44" fill="#E3D5BC"/><rect x="0" y="316" width="480" height="5" fill="#EFE6D6"/><rect x="27.75" y="289.5" width="4.5" height="30.0" rx="1.5" fill="#0B2B20"/><circle cx="30" cy="274.5" r="22.5" fill="#2F5A48"/><circle cx="18.0" cy="285.0" r="15.0" fill="#1F4436"/><circle cx="43.5" cy="283.5" r="13.5" fill="#1F4436"/><rect x="449.6" y="287.6" width="4.800000000000001" height="32.0" rx="1.6" fill="#0B2B20"/><circle cx="452" cy="271.6" r="24.0" fill="#2F5A48"/><circle cx="439.2" cy="282.8" r="16.0" fill="#1F4436"/><circle cx="466.4" cy="281.2" r="14.4" fill="#1F4436"/></svg>